<svg width="118" height="118" viewBox="0 0 118 118" fill="none" xmlns="http://www.w3.org/2000/svg">
<path d="M89.8543 74.8087C85.7685 79.033 80.0047 81.1778 72.5685 81.1778H52.4585V80.1717C55.2068 80.1717 56.8822 79.7022 57.6216 78.8331C58.3578 77.9611 58.7574 75.9504 58.7574 72.8681V44.5868C58.7574 41.7727 58.3578 39.9633 57.5559 39.0898C56.8164 38.2207 55.0713 37.8185 52.4585 37.8185V36.8109H70.4223C86.7063 36.8109 96.0235 43.7835 96.0235 58.7943C96.0235 65.159 93.9426 70.5205 89.8543 74.8087ZM47.1697 37.8185C44.6252 37.8185 42.9498 38.2207 42.0767 39.0898C41.2744 39.9633 40.8707 41.7727 40.8707 44.6551V73.3375C40.8707 76.35 41.2047 78.2311 41.9441 79.033C42.6817 79.772 44.4228 80.1717 47.1697 80.1717V81.1778H29.3444V80.1717C31.8932 80.1717 33.5685 79.772 34.3705 78.9004C35.2439 78.0269 35.6449 76.1502 35.6449 73.3375V44.6551C35.6449 41.7727 35.2439 39.9633 34.4376 39.0898C33.6984 38.2207 31.9574 37.8185 29.3444 37.8185V36.8109H47.1697V37.8185ZM59.0058 -0.0113297C26.4176 -0.0113297 0 26.4075 0 58.9941C0 91.5824 26.4176 118 59.0058 118C91.5939 118 118.011 91.5824 118.011 58.9941C118.011 26.4075 91.5939 -0.0113297 59.0058 -0.0113297Z" fill="#100F0D"/>
<path d="M71.2913 38.89C68.4099 38.89 65.9981 39.1596 63.9888 39.7635V78.2311C66.3992 78.8331 68.8764 79.1002 71.4907 79.1002C76.9224 79.1002 81.2763 77.2918 84.5628 73.6072C87.8434 69.9185 89.4545 65.0951 89.4545 58.9942C89.4545 52.4954 87.7776 47.5321 84.4283 44.1174C81.1463 40.6311 76.7225 38.89 71.2913 38.89Z" fill="#100F0D"/>
</svg>
